<svg id="visual" viewBox="0 0 960 540" width="960" height="540" xmlns="http://www.w3.org/2000/svg" xmlns:xlink="http://www.w3.org/1999/xlink" version="1.1"><rect width="960" height="540" fill="#1D1E20"></rect><g><g transform="translate(489 133)"><path d="M0 -78.5L78.5 0L0 78.5L-78.5 0Z" stroke="#009473" fill="none" stroke-width="4"></path></g><g transform="translate(141 297)"><path d="M0 -19L19 0L0 19L-19 0Z" stroke="#009473" fill="none" stroke-width="4"></path></g><g transform="translate(399 503)"><path d="M0 -50L50 0L0 50L-50 0Z" stroke="#009473" fill="none" stroke-width="4"></path></g><g transform="translate(670 433)"><path d="M0 -68L68 0L0 68L-68 0Z" stroke="#009473" fill="none" stroke-width="4"></path></g><g transform="translate(131 520)"><path d="M0 -33L33 0L0 33L-33 0Z" stroke="#009473" fill="none" stroke-width="4"></path></g><g transform="translate(735 160)"><path d="M0 -70L70 0L0 70L-70 0Z" stroke="#009473" fill="none" stroke-width="4"></path></g><g transform="translate(890 218)"><path d="M0 -71L71 0L0 71L-71 0Z" stroke="#009473" fill="none" stroke-width="4"></path></g><g transform="translate(312 336)"><path d="M0 -35L35 0L0 35L-35 0Z" stroke="#009473" fill="none" stroke-width="4"></path></g><g transform="translate(626 35)"><path d="M0 -27L27 0L0 27L-27 0Z" stroke="#009473" fill="none" stroke-width="4"></path></g><g transform="translate(913 512)"><path d="M0 -35L35 0L0 35L-35 0Z" stroke="#009473" fill="none" stroke-width="4"></path></g><g transform="translate(928 11)"><path d="M0 -21L21 0L0 21L-21 0Z" stroke="#009473" fill="none" stroke-width="4"></path></g><g transform="translate(280 75)"><path d="M0 -56L56 0L0 56L-56 0Z" stroke="#009473" fill="none" stroke-width="4"></path></g><g transform="translate(520 303)"><path d="M0 -35L35 0L0 35L-35 0Z" stroke="#009473" fill="none" stroke-width="4"></path></g><g transform="translate(94 111)"><path d="M0 -37L37 0L0 37L-37 0Z" stroke="#009473" fill="none" stroke-width="4"></path></g><g transform="translate(818 366)"><path d="M0 -25L25 0L0 25L-25 0Z" stroke="#009473" fill="none" stroke-width="4"></path></g></g></svg>