<svg id="visual" viewBox="0 0 675 900" width="675" height="900" xmlns="http://www.w3.org/2000/svg" xmlns:xlink="http://www.w3.org/1999/xlink" version="1.1"><rect x="0" y="0" width="675" height="900" fill="#1D1E20"></rect><path d="M0 423L14 393.2C28 363.3 56 303.7 84.2 307.7C112.3 311.7 140.7 379.3 168.8 425C197 470.7 225 494.3 253.2 507C281.3 519.7 309.7 521.3 337.8 494C366 466.7 394 410.3 422 368.2C450 326 478 298 506.2 296.2C534.3 294.3 562.7 318.7 590.8 351C619 383.3 647 423.7 661 443.8L675 464" fill="none" stroke-linecap="round" stroke-linejoin="miter" stroke="#009473" stroke-width="15"></path></svg>